<svg width="781" height="409" viewBox="0 0 781 409" fill="none" xmlns="http://www.w3.org/2000/svg">
<path d="M285.593 10.1424C221.193 24.2134 209.58 29.1077 154.681 61.5322C107.173 90.286 70.2217 133.723 69.1659 163.7C68.1102 193.066 92.3923 191.842 110.34 161.253C156.793 83.5564 286.649 29.7194 411.226 36.4491C461.902 39.508 535.804 57.8615 573.811 76.8268C604.427 92.7332 660.381 145.347 678.329 175.936C695.221 205.301 712.113 213.255 721.615 196.125C735.339 171.041 678.329 97.6274 612.873 54.8026C536.86 5.85989 397.502 -13.7172 285.593 10.1424Z" fill="#0B0E11"/>
<path d="M332.047 63.3676C166.295 85.3919 63.8883 219.984 62.8325 414.531C62.8325 450.015 55.4423 497.734 46.9964 521.594C26.9373 574.819 26.9373 579.713 45.9407 579.713C80.7802 579.713 92.3933 547.289 105.062 408.414C118.787 257.915 150.459 188.783 227.528 141.676C272.925 113.534 303.542 106.193 384.834 102.522C458.736 99.4629 458.736 99.4629 458.736 81.1094C458.736 63.3676 457.68 62.7559 405.949 61.5323C377.444 61.5323 343.66 62.1441 332.047 63.3676Z" fill="#0B0E11"/>
<path d="M480.907 87.2272C472.461 100.686 481.963 111.087 516.803 125.77C589.649 156.971 643.492 226.714 670.941 322.764C688.889 384.554 689.944 507.523 675.164 579.101C666.718 615.197 666.718 632.326 675.164 637.221C698.39 650.68 708.948 627.432 719.505 536.276C739.564 361.306 698.39 210.807 608.652 136.782C579.091 112.31 515.747 78.0504 499.911 78.0504C493.576 78.0504 485.13 82.3329 480.907 87.2272Z" fill="#0B0E11"/>
<path d="M308.82 129.44C266.591 142.9 242.308 159.418 242.308 173.489C242.308 194.289 257.089 196.125 290.873 178.995C324.656 162.477 384.834 154.523 433.398 160.641C453.457 163.088 488.296 177.159 516.801 193.678C572.756 226.102 606.539 277.492 618.153 349.071C625.543 393.119 632.933 401.684 654.048 387.001C663.55 380.272 662.494 364.365 650.881 315.423C625.543 219.373 583.313 170.43 497.798 138.617C458.736 123.934 438.676 120.875 391.168 121.487C358.44 122.099 321.489 125.77 308.82 129.44Z" fill="#0B0E11"/>
<path d="M343.659 188.172C326.767 191.231 297.206 202.243 278.203 213.255C224.36 243.232 177.907 315.423 200.078 335C212.747 346.624 225.416 338.67 242.308 307.469C276.091 243.232 347.882 210.808 424.951 225.49C448.177 229.773 480.905 243.232 499.909 256.691C536.859 281.775 548.473 281.163 548.473 254.856C548.473 232.832 486.184 196.737 433.397 188.172C390.111 181.442 384.833 181.442 343.659 188.172Z" fill="#0B0E11"/>
<path d="M48.0527 195.513C26.9379 234.055 19.5477 253.632 10.046 301.352C-2.62288 370.483 -3.67862 504.464 8.99028 509.358C29.0494 516.088 34.3281 497.122 38.5511 412.084C40.6625 364.977 50.1642 303.799 59.6659 276.88C69.1676 249.962 76.5578 219.984 77.6135 210.196C78.6693 191.842 55.4429 180.83 48.0527 195.513Z" fill="#0B0E11"/>
<path d="M195.857 201.631C136.735 254.244 92.3943 409.026 126.178 445.733C147.293 468.369 154.683 456.745 161.018 388.225C167.352 318.482 184.244 271.986 214.86 236.503C244.421 202.243 228.585 172.877 195.857 201.631Z" fill="#0B0E11"/>
<path d="M706.834 223.043C706.834 229.161 714.224 264.033 722.67 301.352C731.116 338.059 738.506 400.461 738.506 439.615C738.506 478.769 741.674 511.805 744.841 514.252C748.008 516.088 757.51 516.088 765.956 514.252C786.015 509.97 786.015 398.013 765.956 304.411C749.064 225.49 742.729 212.643 721.615 212.643C713.169 212.643 706.834 217.537 706.834 223.043Z" fill="#0B0E11"/>
<path d="M305.653 256.691C268.702 276.88 261.312 296.457 246.531 414.532C227.528 568.089 227.528 567.478 251.81 567.478C268.702 567.478 271.869 560.748 278.203 511.193C281.371 480.604 284.538 431.662 284.538 402.908C284.538 338.67 297.207 311.14 337.325 286.057L367.942 267.092L409.115 279.327C472.46 298.293 496.742 339.894 496.742 432.885C496.742 539.947 472.46 644.562 431.286 715.529C420.729 734.495 414.394 754.683 417.561 760.189C456.624 818.921 538.972 598.679 536.86 439.003C535.805 338.059 513.634 282.998 461.903 256.08C431.286 238.95 337.325 239.561 305.653 256.691Z" fill="#0B0E11"/>
<path d="M545.308 287.892C542.141 292.787 544.252 317.87 549.531 344.788C555.865 371.095 559.032 427.379 556.921 469.592C553.754 535.665 555.865 546.065 570.646 547.901C585.426 549.124 588.593 540.559 594.928 491.616C602.318 430.438 593.872 316.646 579.091 293.398C569.59 278.104 553.754 275.657 545.308 287.892Z" fill="#0B0E11"/>
<path d="M341.547 298.904C324.655 309.917 321.488 321.54 321.488 380.272C321.488 436.556 324.655 448.18 337.324 448.18C349.993 448.18 354.216 437.168 356.328 391.896C359.495 331.329 373.219 314.199 404.892 331.941C431.285 347.847 435.508 380.883 424.951 487.334C414.393 591.337 415.449 606.632 436.564 602.349C449.233 599.902 471.403 483.051 473.515 407.802C474.571 355.8 454.512 307.469 424.951 294.622C397.501 282.386 364.773 284.222 341.547 298.904Z" fill="#0B0E11"/>
<path d="M196.913 357.636C192.69 359.471 189.523 385.166 188.467 413.92C187.412 520.982 174.743 569.925 137.792 612.75C118.788 634.162 105.064 656.798 107.175 662.916C114.565 686.775 136.736 676.375 173.687 632.327C210.638 587.666 212.749 582.16 223.307 486.11C235.976 372.93 229.641 338.67 196.913 357.636Z" fill="#0B0E11"/>
<path d="M376.387 357.636C372.164 359.471 368.997 402.908 368.997 453.686C368.997 577.266 342.603 657.41 280.314 721.035C261.311 740.001 257.088 749.789 264.478 757.742C280.314 774.872 301.429 765.084 329.934 727.765C384.833 656.798 411.226 567.477 411.226 448.18C411.226 364.977 401.725 342.341 376.387 357.636Z" fill="#0B0E11"/>
<path d="M630.823 412.084C627.656 415.143 621.321 458.58 617.098 509.358C613.931 559.524 601.262 627.432 589.649 660.469C565.367 732.659 565.367 732.659 588.593 732.659C611.819 732.659 627.656 699.011 643.492 616.42C664.607 503.24 667.774 430.438 650.882 418.202C642.436 412.084 633.99 409.025 630.823 412.084Z" fill="#0B0E11"/>
<path d="M121.953 470.816C118.786 475.098 114.563 497.734 112.451 520.982C109.284 550.348 100.838 568.089 85.0021 580.325C60.7201 599.29 56.4971 619.479 74.4447 626.209C108.228 637.833 161.016 557.077 155.737 502.017C152.57 469.592 132.511 451.238 121.953 470.816Z" fill="#0B0E11"/>
<path d="M322.546 470.816C320.435 475.098 315.156 499.57 311.989 524.653C302.487 585.219 279.261 637.221 241.254 675.151C206.415 711.247 201.136 734.494 229.641 731.436C252.867 728.988 317.267 653.739 335.215 606.632C354.218 557.077 357.386 468.369 340.494 465.31C333.104 463.474 324.658 465.921 322.546 470.816Z" fill="#0B0E11"/>
<path d="M544.25 593.172C541.083 601.126 531.581 629.88 523.136 658.022C513.634 686.164 498.853 718.588 490.408 730.212C474.571 752.848 478.794 769.366 500.965 769.366C524.191 769.366 560.086 697.176 575.923 617.644C582.257 585.219 580.146 579.713 565.365 579.713C556.919 579.713 546.362 585.831 544.25 593.172Z" fill="#0B0E11"/>
<path d="M215.916 610.914C211.693 621.314 196.913 645.174 183.188 662.916C133.568 728.377 168.408 744.895 221.195 681.269C259.202 634.774 267.647 596.843 240.198 593.172C228.585 591.949 221.195 596.843 215.916 610.914Z" fill="#0B0E11"/>
<path d="M385.889 662.916C376.387 685.552 358.439 714.306 347.882 727.153C320.433 757.13 320.433 775.484 346.826 775.484C362.662 775.484 373.22 765.084 394.335 730.824C430.23 672.704 445.01 635.997 437.62 628.656C420.728 612.749 401.725 624.985 385.889 662.916Z" fill="#0B0E11"/>
</svg>
