<svg width="80" height="50" viewBox="0 0 80 50" fill="none" xmlns="http://www.w3.org/2000/svg">
<rect width="80" height="50" fill="black"/>
<g clip-path="url(#clip0_6917_450)">
<path d="M7 25V44H16.4566C25.2552 44 28.3505 43.8338 29.5448 43.3113C29.8129 43.1688 30.471 42.955 31.0072 42.8125C33.5419 42.0763 36.5398 39.8913 38.124 37.635C39.3914 35.83 40.7319 32.5288 41.1462 30.225C41.5606 27.9213 41.5606 22.055 41.1462 19.775C40.8538 18.1363 39.9276 15.3338 39.2939 14.1938C37.466 10.7975 34.6387 8.47 30.7147 7.0925C27.9849 6.11875 26.4007 6 16.4566 6H7V25ZM28.5455 15.8088C31.0315 16.9488 32.9326 18.8963 33.9319 21.2475C34.5412 22.6963 34.6631 23.29 34.6631 25C34.6631 27.7788 33.7857 29.9163 31.7871 31.935C27.0344 36.685 19.4301 36.0913 15.5792 30.6525C14.3849 28.9663 13.9706 27.5175 13.9706 25C13.9706 20.82 15.8473 17.8038 19.552 15.975C21.5262 15.0013 22.6229 14.7875 24.8652 14.8825C26.4007 14.9538 27.0832 15.1438 28.5455 15.8088Z" fill="white"/>
<path d="M51.2366 17.8038C49.1649 18.35 47.6294 19.4662 46.4595 21.2475C45.6552 22.4587 45.6309 22.5537 45.6309 25.0237C45.6309 27.5413 45.6309 27.5413 46.557 28.895C47.6538 30.51 49.5792 31.7925 51.4803 32.1963C55.1119 32.9325 59.2065 30.51 60.157 27.0425C60.547 25.6175 60.3033 22.9337 59.6696 21.7225C58.9871 20.4162 57.5735 19.0863 56.1599 18.3975C55.0387 17.8513 52.2846 17.5188 51.2366 17.8038Z" fill="white"/>
<path d="M68.6631 20.0125C66.104 20.4875 64.5198 22.3875 64.5198 25C64.5198 28.04 66.6158 30.035 69.7843 30.035C71.6854 30.0588 73.0746 29.3463 74.147 27.8975C74.8051 26.9475 74.8782 26.6863 74.8782 25C74.8782 23.3138 74.8051 23.0525 74.147 22.1025C72.9284 20.44 70.7592 19.6088 68.6631 20.0125Z" fill="white"/>
</g>
<defs>
<clipPath id="clip0_6917_450">
<rect width="68" height="38" fill="white" transform="translate(7 6)"/>
</clipPath>
</defs>
</svg>
