<svg width="849" height="207" viewBox="0 0 849 207" fill="none" xmlns="http://www.w3.org/2000/svg">
<path d="M0 100.214V200.203H47.391C97.7572 200.203 101.582 199.817 119.434 193.374C135.16 187.576 146.848 177.783 157.262 161.419C168.525 143.38 174.05 109.105 170.225 82.175C165.975 54.2141 161.937 43.9059 149.398 28.5726C140.26 17.749 126.022 8.8582 110.721 4.47723C99.0323 1.25592 97.7572 1.12708 49.5161 0.740524L0 0.353958V100.214ZM92.4443 40.5558C112.846 46.2253 121.346 57.9508 125.172 84.8809C127.722 102.147 125.172 126.758 120.071 137.581C116.459 144.797 108.595 153.43 102.858 156.523C95.8445 160.259 78.6308 162.836 61.2045 162.836H44.6283V100.214V37.4633L65.4548 38.1076C76.7181 38.4942 89.044 39.6538 92.4443 40.5558Z" fill="white"/>
<path d="M261.394 100.472V200.332L311.973 199.946L362.339 199.559L374.665 195.822C401.229 187.834 418.018 170.825 428.431 141.576C432.894 129.464 434.807 89.6483 431.832 73.2841C426.731 45.7098 412.493 23.4184 392.941 12.8525C382.74 7.3119 379.128 6.02338 362.764 1.90012C358.939 0.998154 340.025 0.482742 309.21 0.482742H261.394V100.472ZM356.389 40.9423C378.065 47.6426 388.903 67.3569 388.903 100.214C388.903 136.937 376.577 156.136 350.013 160.903C344.063 161.934 331.737 162.836 322.599 162.836H306.022V100.214V37.4633L327.911 38.1075C341.937 38.6229 352.351 39.5249 356.389 40.9423Z" fill="white"/>
<path d="M633.297 32.0515V50.7351H620.546H607.795V68.1301V85.5251H620.333H633.084L633.722 130.237C634.572 175.464 634.784 176.881 642.86 187.962C650.298 198.013 670.062 203.94 690.676 202.136C708.952 200.59 707.677 201.878 707.677 184.097V168.119L696.839 167.733C687.488 167.346 685.151 166.702 681.325 163.738C677.075 160.259 676.862 158.326 676.225 122.763L675.587 85.5251H690.463H705.552V68.1301V50.7351H690.676H675.8V32.0515V13.368H654.548H633.297V32.0515Z" fill="white"/>
<path d="M506 45.4522C493.036 48.4158 490.699 49.4466 479.648 56.2758C470.085 62.3318 462.647 71.4803 462.434 77.794C462.222 83.9789 467.11 83.7212 470.722 77.2786C480.073 60.9144 506.212 49.5754 531.289 50.9928C541.49 51.6371 556.366 55.5026 564.017 59.4971C570.18 62.8472 581.443 73.9285 585.056 80.3711C588.456 86.556 591.856 88.231 593.769 84.6232C596.532 79.3403 585.056 63.878 571.88 54.8584C556.579 44.5502 528.527 40.427 506 45.4522Z" fill="white"/>
<path d="M769.306 49.06C748.48 54.0852 741.254 57.5642 732.541 66.5839C720.428 79.0825 718.94 104.338 729.566 118.125C738.917 130.494 748.48 135.004 777.595 140.931C793.321 144.024 797.359 145.312 802.034 148.147C806.072 150.467 806.497 159.873 803.096 164.64C798.209 171.212 779.295 173.402 768.881 168.764C764.631 166.831 756.768 156.909 756.556 153.43C756.556 151.497 754.218 151.24 737.429 151.24H718.303V157.038C718.303 160.13 719.365 165.8 720.64 169.537C729.991 195.951 760.381 208.192 801.609 202.136C815.635 199.946 818.398 199.044 828.811 192.601C845.387 182.422 849 175.722 849 155.749C849 127.917 838.374 119.155 793.321 109.878C770.794 105.111 765.056 101.889 765.056 93.2562C765.269 82.0461 780.357 77.0209 796.296 82.9481C801.821 84.8809 803.947 87.0713 806.922 93.2562L810.747 100.987H828.386H845.812V97.3795C845.6 75.9901 830.723 57.9508 808.197 51.2505C800.121 48.9312 775.469 47.5138 769.306 49.06Z" fill="white"/>
<path d="M515.35 56.6622C481.985 61.3009 461.371 89.6483 461.158 130.623C461.158 138.097 459.671 148.147 457.971 153.172C453.933 164.382 453.933 165.413 457.758 165.413C464.771 165.413 467.109 158.584 469.659 129.335C472.422 97.6371 478.797 83.0768 494.311 73.1552C503.449 67.2281 509.612 65.6818 525.976 64.9087C540.852 64.2645 540.852 64.2645 540.852 60.3989C540.852 56.6622 540.639 56.5333 530.226 56.2756C524.488 56.2756 517.688 56.4045 515.35 56.6622Z" fill="white"/>
<path d="M545.315 61.6875C543.615 64.5222 545.528 66.7127 552.541 69.8051C567.204 76.3766 578.043 91.0657 583.568 111.295C587.181 124.31 587.393 150.209 584.418 165.284C582.718 172.887 582.718 176.495 584.418 177.525C589.094 180.36 591.219 175.464 593.344 156.265C597.382 119.413 589.094 87.7156 571.03 72.1245C565.079 66.9704 552.328 59.7547 549.141 59.7547C547.866 59.7547 546.165 60.6566 545.315 61.6875Z" fill="white"/>
<path d="M510.675 70.5783C502.174 73.413 497.286 76.892 497.286 79.8556C497.286 84.2366 500.261 84.6232 507.062 81.0153C513.862 77.5363 525.976 75.8612 535.751 77.1497C539.789 77.6652 546.802 80.6287 552.54 84.1078C563.804 90.9369 570.604 101.76 572.942 116.836C574.429 126.114 575.917 127.917 580.167 124.825C582.08 123.408 581.867 120.057 579.53 109.749C574.429 89.5195 565.929 79.2114 548.715 72.5111C540.852 69.4186 536.814 68.7744 527.251 68.9032C520.663 69.0321 513.225 69.8052 510.675 70.5783Z" fill="white"/>
<path d="M197.427 79.9845C181.488 90.6792 181.276 111.167 197.002 121.733C206.14 127.789 214.641 128.433 223.779 123.665C231.217 119.8 238.017 109.234 238.017 101.76C238.017 93.9005 232.917 84.4943 226.117 80.2422C217.828 75.0881 204.865 74.9593 197.427 79.9845Z" fill="white"/>
<path d="M517.688 82.9481C514.288 83.5923 508.337 85.9117 504.512 88.231C493.674 94.5447 484.323 109.749 488.786 113.873C491.336 116.321 493.886 114.646 497.287 108.074C504.087 94.5447 518.538 87.7156 534.052 90.808C538.727 91.71 545.315 94.5447 549.14 97.3795C556.578 102.662 558.916 102.534 558.916 96.9929C558.916 92.3543 546.378 84.752 535.752 82.9481C527.039 81.5307 525.976 81.5307 517.688 82.9481Z" fill="white"/>
<path d="M458.184 84.4943C453.933 92.612 452.446 96.7353 450.533 106.786C447.983 121.346 447.77 149.565 450.32 150.595C454.358 152.013 455.421 148.018 456.271 130.108C456.696 120.186 458.609 107.301 460.521 101.632C462.434 95.9622 463.921 89.6484 464.134 87.5868C464.346 83.7212 459.671 81.4019 458.184 84.4943Z" fill="white"/>
<path d="M487.936 85.7828C476.035 96.8641 467.109 129.464 473.91 137.195C478.16 141.962 479.648 139.514 480.923 125.083C482.198 110.394 485.598 100.601 491.761 93.1274C497.712 85.9117 494.524 79.7268 487.936 85.7828Z" fill="white"/>
<path d="M590.794 90.2926C590.794 91.5811 592.282 98.9257 593.982 106.786C595.682 114.517 597.169 127.66 597.169 135.906C597.169 144.153 597.807 151.111 598.445 151.626C599.082 152.013 600.995 152.013 602.695 151.626C606.733 150.724 606.733 127.144 602.695 107.43C599.295 90.808 598.019 88.1021 593.769 88.1021C592.069 88.1021 590.794 89.1329 590.794 90.2926Z" fill="white"/>
<path d="M510.038 97.3795C502.6 101.632 501.112 105.755 498.137 130.623C494.312 162.965 494.312 162.836 499.2 162.836C502.6 162.836 503.237 161.419 504.512 150.982C505.15 144.539 505.788 134.231 505.788 128.175C505.788 114.646 508.338 108.847 516.413 103.564L522.576 99.5699L530.864 102.147C543.615 106.141 548.503 114.903 548.503 134.489C548.503 157.038 543.615 179.072 535.327 194.018C533.202 198.013 531.927 202.265 532.565 203.425C540.428 215.794 557.004 169.408 556.579 135.777C556.366 114.517 551.903 102.92 541.49 97.2506C535.327 93.6428 516.413 93.7716 510.038 97.3795Z" fill="white"/>
<path d="M558.279 103.951C557.641 104.982 558.066 110.265 559.129 115.934C560.404 121.475 561.041 133.329 560.616 142.22C559.979 156.136 560.404 158.327 563.379 158.713C566.354 158.971 566.992 157.167 568.267 146.859C569.754 133.973 568.054 110.007 565.079 105.111C563.166 101.889 559.979 101.374 558.279 103.951Z" fill="white"/>
<path d="M517.263 106.27C513.862 108.59 513.225 111.038 513.225 123.408C513.225 135.262 513.862 137.71 516.413 137.71C518.963 137.71 519.813 135.391 520.238 125.856C520.875 113.099 523.638 109.492 530.014 113.228C535.326 116.578 536.177 123.536 534.051 145.957C531.926 167.862 532.139 171.083 536.389 170.181C538.939 169.665 543.402 145.055 543.827 129.206C544.04 118.254 540.002 108.074 534.051 105.368C528.526 102.791 521.938 103.178 517.263 106.27Z" fill="white"/>
<path d="M488.148 118.64C487.298 119.027 486.66 124.438 486.448 130.494C486.235 153.043 483.685 163.352 476.247 172.371C472.422 176.881 469.659 181.649 470.084 182.937C471.572 187.962 476.035 185.772 483.473 176.495C490.911 167.088 491.336 165.929 493.461 145.699C496.011 121.861 494.736 114.646 488.148 118.64Z" fill="white"/>
<path d="M524.276 118.64C523.426 119.027 522.789 128.175 522.789 138.87C522.789 164.898 517.476 181.778 504.937 195.178C501.112 199.173 500.262 201.234 501.75 202.909C504.937 206.517 509.188 204.455 514.925 196.596C525.976 181.649 531.289 162.836 531.289 137.71C531.289 120.186 529.377 115.419 524.276 118.64Z" fill="white"/>
<path d="M575.492 130.108C574.855 130.752 573.58 139.901 572.73 150.595C572.092 161.161 569.542 175.464 567.204 182.422C562.316 197.626 562.316 197.626 566.992 197.626C571.667 197.626 574.855 190.539 578.042 173.144C582.293 149.307 582.93 133.973 579.53 131.396C577.83 130.108 576.13 129.464 575.492 130.108Z" fill="white"/>
<path d="M473.06 142.478C472.423 143.38 471.573 148.147 471.147 153.044C470.51 159.228 468.81 162.965 465.622 165.542C460.734 169.537 459.884 173.789 463.497 175.206C470.297 177.654 480.923 160.646 479.861 149.049C479.223 142.22 475.185 138.354 473.06 142.478Z" fill="white"/>
<path d="M513.438 142.478C513.013 143.38 511.95 148.534 511.313 153.817C509.4 166.573 504.725 177.525 497.074 185.514C490.061 193.117 488.999 198.013 494.737 197.369C499.412 196.853 512.375 181.004 515.988 171.083C519.813 160.646 520.451 141.962 517.051 141.318C515.563 140.931 513.863 141.447 513.438 142.478Z" fill="white"/>
<path d="M558.066 168.248C557.428 169.923 555.516 175.979 553.816 181.906C551.903 187.834 548.928 194.663 547.228 197.111C544.04 201.879 544.89 205.358 549.353 205.358C554.028 205.358 561.254 190.153 564.441 173.402C565.717 166.573 565.292 165.413 562.316 165.413C560.616 165.413 558.491 166.702 558.066 168.248Z" fill="white"/>
<path d="M491.974 171.985C491.124 174.175 488.148 179.201 485.386 182.937C475.397 196.724 482.41 200.203 493.036 186.803C500.687 177.01 502.387 169.021 496.861 168.248C494.524 167.99 493.036 169.021 491.974 171.985Z" fill="white"/>
<path d="M526.189 182.937C524.276 187.705 520.663 193.761 518.538 196.467C513.013 202.78 513.013 206.646 518.325 206.646C521.513 206.646 523.638 204.456 527.889 197.24C535.114 184.999 538.089 177.268 536.602 175.722C533.202 172.371 529.376 174.948 526.189 182.937Z" fill="white"/>
</svg>
