<svg width="422" height="289" viewBox="0 0 422 289" fill="none" xmlns="http://www.w3.org/2000/svg">
<g opacity="0.1">
<path d="M154.315 5.51923C119.518 13.1764 113.243 15.8397 83.5793 33.4844C57.9089 49.1315 37.9431 72.7687 37.3726 89.0817C36.8022 105.062 49.9226 104.396 59.6203 87.75C84.7202 45.4694 154.886 16.1726 222.199 19.8347C249.581 21.4993 289.512 31.4869 310.049 41.8073C326.592 50.4632 356.826 79.0942 366.523 95.7401C375.651 111.72 384.778 116.048 389.912 106.726C397.328 93.0767 366.523 53.1265 331.155 29.8223C290.083 3.18881 214.783 -7.46458 154.315 5.51923Z" fill="#0B0E11"/>
<path d="M179.416 34.4832C89.8548 46.4682 34.5209 119.71 33.9505 225.578C33.9505 244.887 29.9573 270.855 25.3937 283.839C14.5551 312.803 14.5551 315.466 24.8233 315.466C43.6482 315.466 49.9231 297.821 56.7686 222.249C64.1844 140.351 81.298 102.731 122.941 77.0967C147.47 61.7825 164.014 57.7874 207.938 55.7899C247.87 54.1253 247.87 54.1253 247.87 44.1378C247.87 34.4832 247.3 34.1503 219.347 33.4844C203.945 33.4844 185.691 33.8173 179.416 34.4832Z" fill="#0B0E11"/>
<path d="M281 58C276.436 65.3242 260.421 60.4508 279.245 68.4408C318.607 85.4196 347.7 123.372 362.531 175.64C372.229 209.265 372.8 276.182 364.813 315.133C360.25 334.775 360.25 344.097 364.813 346.76C377.363 354.085 383.068 341.434 388.772 291.829C399.611 196.614 377.363 114.716 328.875 74.4333C312.902 61.1166 287.802 50.5 279.245 50.5C275.823 50.5 283.282 55.3367 281 58Z" fill="#0B0E11"/>
<path d="M166.866 70.4384C144.048 77.7626 130.927 86.7514 130.927 94.4085C130.927 105.728 138.914 106.726 157.168 97.4047C175.422 88.4159 207.938 84.088 234.179 87.4172C245.018 88.7489 263.843 96.406 279.245 105.395C309.479 123.039 327.733 151.005 334.008 189.956C338.001 213.926 341.995 218.587 353.404 210.597C358.538 206.935 357.967 198.279 351.692 171.646C338.001 119.377 315.183 92.7439 268.977 75.4321C247.87 67.4421 237.031 65.7775 211.361 66.1104C193.677 66.4434 173.711 68.4409 166.866 70.4384Z" fill="#0B0E11"/>
<path d="M185.69 102.399C176.563 104.063 160.59 110.056 150.322 116.048C121.229 132.361 96.1291 171.646 108.109 182.299C114.954 188.624 121.799 184.296 130.927 167.318C149.181 132.361 187.972 114.717 229.615 122.707C242.165 125.037 259.849 132.361 270.117 139.685C290.083 153.335 296.358 153.002 296.358 138.687C296.358 126.702 262.701 107.059 234.179 102.399C210.79 98.7365 207.938 98.7365 185.69 102.399Z" fill="#0B0E11"/>
<path d="M25.9645 106.394C14.5554 127.367 10.5623 138.021 5.4282 163.988C-1.41723 201.608 -1.98768 274.517 4.85775 277.181C15.6963 280.843 18.5486 270.522 20.8304 224.247C21.9713 198.612 27.1054 165.32 32.2394 150.672C37.3735 136.023 41.3667 119.71 41.9371 114.384C42.5076 104.396 29.9576 98.4035 25.9645 106.394Z" fill="#0B0E11"/>
<path d="M105.828 109.723C73.8827 138.354 49.9237 222.582 68.1781 242.557C79.5872 254.875 83.5803 248.55 87.0031 211.263C90.4258 173.31 99.553 148.008 116.096 128.699C132.069 110.056 123.512 94.0756 105.828 109.723Z" fill="#0B0E11"/>
<path d="M381.926 121.375C381.926 124.704 385.919 143.68 390.483 163.988C395.046 183.964 399.039 217.921 399.039 239.228C399.039 260.535 400.751 278.512 402.462 279.844C404.173 280.843 409.307 280.843 413.871 279.844C424.71 277.514 424.71 216.589 413.871 165.653C404.744 122.707 401.321 115.715 389.912 115.715C385.348 115.715 381.926 118.379 381.926 121.375Z" fill="#0B0E11"/>
<path d="M165.154 139.685C145.188 150.672 141.195 161.325 133.209 225.578C122.941 309.141 122.941 308.808 136.061 308.808C145.188 308.808 146.9 305.146 150.322 278.179C152.034 261.533 153.745 234.9 153.745 219.253C153.745 184.296 160.591 169.315 182.268 155.665L198.811 145.345L221.059 152.003C255.286 162.324 268.406 184.962 268.406 235.566C268.406 293.827 255.286 350.756 233.038 389.374C227.333 399.694 223.911 410.681 225.622 413.677C246.729 445.637 291.224 325.787 290.083 238.895C289.513 183.964 277.533 154.001 249.581 139.352C233.038 130.031 182.268 130.364 165.154 139.685Z" fill="#0B0E11"/>
<path d="M294.648 156.664C292.936 159.328 294.077 172.977 296.929 187.626C300.352 201.941 302.064 232.57 300.923 255.541C299.211 291.496 300.352 297.156 308.339 298.154C316.325 298.82 318.036 294.159 321.459 267.526C325.452 234.234 320.888 172.311 312.902 159.66C307.768 151.338 299.211 150.006 294.648 156.664Z" fill="#0B0E11"/>
<path d="M184.549 162.657C175.422 168.649 173.711 174.975 173.711 206.935C173.711 237.563 175.422 243.889 182.267 243.889C189.113 243.889 191.395 237.896 192.535 213.26C194.247 180.301 201.663 170.98 218.776 180.634C233.038 189.29 235.319 207.268 229.615 265.195C223.91 321.792 224.481 330.115 235.89 327.784C242.735 326.452 254.715 262.865 255.856 221.916C256.426 193.618 245.588 167.318 229.615 160.326C214.783 153.668 197.099 154.667 184.549 162.657Z" fill="#0B0E11"/>
<path d="M106.399 194.617C104.117 195.616 102.406 209.598 101.835 225.245C101.265 283.506 94.4192 310.14 74.4533 333.444C64.1852 345.096 56.7693 357.414 57.9102 360.743C61.9034 373.727 73.8829 368.067 93.8487 344.097C113.815 319.794 114.955 316.798 120.66 264.53C127.505 202.94 124.083 184.296 106.399 194.617Z" fill="#0B0E11"/>
<path d="M203.374 194.617C201.092 195.616 199.381 219.253 199.381 246.885C199.381 314.135 185.12 357.747 151.463 392.37C141.195 402.691 138.913 408.017 142.906 412.345C151.463 421.667 162.872 416.34 178.274 396.032C207.938 357.414 222.199 308.808 222.199 243.889C222.199 198.612 217.065 186.294 203.374 194.617Z" fill="#0B0E11"/>
<path d="M340.854 224.247C339.143 225.911 335.72 249.548 333.438 277.181C331.727 304.48 324.882 341.434 318.607 359.411C305.486 398.696 305.486 398.696 318.036 398.696C330.586 398.696 339.143 380.385 347.7 335.441C359.109 273.851 360.82 234.234 351.693 227.576C347.129 224.247 342.566 222.582 340.854 224.247Z" fill="#0B0E11"/>
<path d="M65.8953 256.207C64.1839 258.537 61.9021 270.855 60.7612 283.506C59.0498 299.486 54.4862 309.141 45.9295 315.799C32.8091 326.12 30.5272 337.106 40.2249 340.768C58.4794 347.093 87.002 303.148 84.1497 273.186C82.4384 255.541 71.5998 245.553 65.8953 256.207Z" fill="#0B0E11"/>
<path d="M174.282 256.207C173.141 258.537 170.289 271.854 168.578 285.504C163.444 318.462 150.894 346.76 130.357 367.401C111.533 387.044 108.68 399.695 124.083 398.03C136.632 396.698 171.43 355.749 181.128 330.115C191.396 303.148 193.107 254.875 183.98 253.21C179.987 252.212 175.423 253.543 174.282 256.207Z" fill="#0B0E11"/>
<path d="M294.076 322.79C292.365 327.118 287.231 342.766 282.667 358.08C277.533 373.394 269.547 391.039 264.983 397.364C256.427 409.682 258.708 418.671 270.688 418.671C283.238 418.671 302.633 379.387 311.19 336.107C314.613 318.462 313.472 315.466 305.485 315.466C300.922 315.466 295.217 318.795 294.076 322.79Z" fill="#0B0E11"/>
<path d="M116.667 332.445C114.385 338.105 106.398 351.088 98.9826 360.743C72.1713 396.365 90.9962 405.354 119.519 370.731C140.055 345.429 144.619 324.788 129.787 322.79C123.512 322.125 119.519 324.788 116.667 332.445Z" fill="#0B0E11"/>
<path d="M208.508 360.743C203.374 373.061 193.677 388.708 187.972 395.699C173.14 412.012 173.14 422 187.402 422C195.958 422 201.663 416.34 213.072 397.697C232.467 366.07 240.454 346.095 236.461 342.1C227.333 333.444 217.065 340.102 208.508 360.743Z" fill="#0B0E11"/>
</g>
</svg>
